<svg xmlns="http://www.w3.org/2000/svg" viewBox="0 0 32 32" fill="none">
  <rect width="32" height="32" rx="8" fill="#6abe74"/>
  <!-- Wind lines -->
  <path d="M7 12 C10 12 14 12 17 12 C19.5 12 21 10.5 21 9 C21 7.5 19.5 6 18 6 C16.5 6 15 7 15 8.5" stroke="white" stroke-width="2" stroke-linecap="round" fill="none"/>
  <path d="M7 16 C11 16 18 16 21 16 C23.5 16 25 14.5 25 13 C25 11.5 23.5 10 22 10 C20.5 10 19 11 19 12.5" stroke="white" stroke-width="2" stroke-linecap="round" fill="none"/>
  <path d="M7 20 C10 20 13 20 16 20 C18.5 20 20 21.5 20 23 C20 24.5 18.5 26 17 26 C15.5 26 14 25 14 23.5" stroke="white" stroke-width="2" stroke-linecap="round" fill="none"/>
</svg>
